<svg width="127" height="54" viewBox="0 0 127 54" fill="none" xmlns="http://www.w3.org/2000/svg">
<path fill-rule="evenodd" clip-rule="evenodd" d="M51.645 19.9993L43.5 42.9258H47.2806C42.5071 49.185 34.9711 53.2242 26.4917 53.2242C12.0614 53.2242 0.363281 41.5261 0.363281 27.0957C0.363281 12.6654 12.0614 0.967285 26.4917 0.967285C38.4624 0.967285 48.5529 9.01737 51.645 19.9993Z" fill="white"/>
<path d="M8.32955 41.7305V10.3634H18.0887L24.6379 29.3215C24.7958 29.8098 24.9395 30.2838 25.0687 30.7434C25.198 31.203 25.3057 31.6985 25.3919 32.2299H25.4996C25.6001 31.6985 25.715 31.203 25.8443 30.7434C25.9735 30.2838 26.1172 29.8098 26.2751 29.3215L32.8243 10.3634H42.6481V41.7305H35.5388V22.6646C35.5388 22.1763 35.546 21.6377 35.5603 21.0489C35.5747 20.46 35.6034 19.9214 35.6465 19.4331H35.5172C35.4311 19.9358 35.3162 20.4816 35.1725 21.0704C35.0289 21.6449 34.8781 22.1763 34.7201 22.6646L28.3218 41.7305H22.0311L15.6112 22.6646C15.4676 22.1763 15.3168 21.6162 15.1588 20.9842C15.0008 20.3379 14.9003 19.8209 14.8572 19.4331H14.7064C14.7351 19.8209 14.7566 20.3379 14.771 20.9842C14.7997 21.6162 14.8141 22.1763 14.8141 22.6646V41.7305H8.32955ZM44.8168 41.7305L52.2708 20.7473H57.2688L64.7659 41.7305H59.9402L55.0427 27.1815C54.9278 26.8368 54.8368 26.5161 54.7698 26.2193C54.7028 25.9225 54.6405 25.64 54.5831 25.3719H54.4825C54.4347 25.64 54.3724 25.9225 54.2958 26.2193C54.2192 26.5161 54.1283 26.8368 54.023 27.1815L49.1972 41.7305H44.8168ZM49.0536 37.2782L49.9584 33.9892H59.337L60.2562 37.2782H49.0536ZM64.1196 41.7305L71.5736 20.7473H76.5716L84.0687 41.7305H79.243L74.3455 27.1815C74.2306 26.8368 74.1396 26.5161 74.0726 26.2193C74.0056 25.9225 73.9434 25.64 73.8859 25.3719H73.7854C73.7375 25.64 73.6753 25.9225 73.5987 26.2193C73.5221 26.5161 73.4311 26.8368 73.3258 27.1815L68.5001 41.7305H64.1196ZM68.3565 37.2782L69.2613 33.9892H78.6398L79.559 37.2782H68.3565ZM85.6342 41.7305V20.8191H91.7956L96.4059 33.8169C96.5208 34.1424 96.6165 34.4536 96.6931 34.7504C96.7793 35.0472 96.8559 35.3728 96.9229 35.7271H96.9947C97.0617 35.3728 97.1383 35.0472 97.2245 34.7504C97.3107 34.4536 97.4064 34.1424 97.5118 33.8169L102.136 20.8191H108.355V41.7305H103.774V28.7757C103.774 28.4502 103.778 28.0911 103.788 27.6986C103.798 27.306 103.822 26.9517 103.86 26.6358H103.745C103.697 26.9613 103.625 27.3204 103.53 27.7129C103.434 28.0959 103.333 28.4502 103.228 28.7757L98.7038 41.7305H94.7399L90.2158 28.7757C90.1104 28.4502 90.0051 28.0816 89.8998 27.6699C89.804 27.2581 89.737 26.9134 89.6987 26.6358H89.5982C89.6269 26.9134 89.6461 27.2581 89.6556 27.6699C89.6652 28.0816 89.67 28.4502 89.67 28.7757V41.7305H85.6342ZM110.854 35.9281V35.2675H115.393V35.7414C115.393 36.7564 115.694 37.5128 116.298 38.0107C116.91 38.5085 117.767 38.7575 118.868 38.7575C119.941 38.7575 120.764 38.5277 121.339 38.0681C121.923 37.5989 122.215 36.9766 122.215 36.201C122.215 35.4446 121.923 34.851 121.339 34.4201C120.755 33.9797 119.539 33.5009 117.691 32.9839C115.508 32.3615 113.87 31.5477 112.779 30.5423C111.697 29.5369 111.156 28.1869 111.156 26.4922C111.156 24.6442 111.84 23.1745 113.21 22.0829C114.579 20.9914 116.417 20.4457 118.725 20.4457C121.023 20.4457 122.866 20.9866 124.254 22.0686C125.652 23.1505 126.351 24.6251 126.351 26.4922V27.0523H121.899V26.6645C121.899 25.8028 121.636 25.1182 121.109 24.6107C120.582 24.0937 119.802 23.8351 118.768 23.8351C117.724 23.8351 116.958 24.0458 116.47 24.4671C115.982 24.8788 115.737 25.4341 115.737 26.1331C115.737 26.8033 116.025 27.3299 116.599 27.7129C117.183 28.0864 118.414 28.5364 120.29 29.063C122.416 29.6662 124.029 30.4848 125.13 31.5189C126.231 32.5434 126.782 33.9797 126.782 35.8276C126.782 37.8 126.059 39.3416 124.613 40.4522C123.177 41.5533 121.272 42.1039 118.897 42.1039C116.532 42.1039 114.598 41.5773 113.095 40.524C111.601 39.4708 110.854 37.9388 110.854 35.9281Z" fill="black"/>
</svg>
