<svg width="194" height="80" viewBox="0 0 194 80" fill="none" xmlns="http://www.w3.org/2000/svg">
<path fill-rule="evenodd" clip-rule="evenodd" d="M79.0341 29.0169L66.5906 63.6597L72.3103 63.6797C65.0554 73.1241 53.6328 79.1953 40.8042 79.1506C18.9724 79.0745 1.33587 61.3146 1.41199 39.4827C1.4881 17.6508 19.248 0.0143399 41.0799 0.0904545C59.1905 0.153595 74.414 12.3859 79.0341 29.0169Z" fill="#FBC707"/>
<path d="M14.4164 62.1524L14.5818 14.6968L30.0962 14.7508L39.3532 42.6832C39.5896 43.4228 39.8044 44.1515 39.9974 44.8692C40.1906 45.5652 40.3618 46.3155 40.5111 47.12L40.6414 47.1204C40.7963 46.317 40.9728 45.568 41.1708 44.8733C41.3688 44.157 41.5778 43.4298 41.7977 42.6917L51.2492 14.8246L66.8287 14.8789L66.6633 62.3346L55.6142 62.2961L55.7128 34.0052C55.7154 33.2664 55.7182 32.4516 55.7213 31.5607C55.7462 30.6482 55.7926 29.8226 55.8603 29.0841L55.6648 29.0834C55.5318 29.8434 55.355 30.6685 55.1346 31.5586C54.9143 32.427 54.6942 33.2411 54.4743 34.0009L45.2169 62.2598L35.2108 62.2249L26.1182 33.902C25.9035 33.1625 25.6784 32.2925 25.4428 31.2922C25.2073 30.2918 25.0579 29.5199 24.9946 28.9765L24.799 28.9758C24.8406 29.5191 24.8705 30.2906 24.8888 31.2902C24.9287 32.2899 24.9474 33.1591 24.9448 33.8979L24.8462 62.1888L14.4164 62.1524Z" fill="black"/>
<path d="M69.5206 62.3445L80.4086 30.6798L88.3613 30.7075L98.9848 62.4473L91.597 62.4215L84.7633 40.6034C84.6058 40.0669 84.4699 39.5739 84.3556 39.1244C84.2557 38.675 84.163 38.2691 84.0773 37.9066L83.9687 37.9063C83.8805 38.2681 83.7777 38.6734 83.6603 39.122C83.5428 39.5707 83.4035 40.0627 83.2423 40.5981L76.4303 62.3686L69.5206 62.3445ZM75.6927 55.8039L76.9487 50.8106L91.268 50.8605L92.5543 55.8627L75.6927 55.8039ZM98.1157 62.4442L109.004 30.7795L116.956 30.8072L127.58 62.547L120.192 62.5212L113.358 40.7031C113.201 40.1666 113.065 39.6736 112.951 39.2241C112.851 38.7747 112.758 38.3688 112.672 38.0063L112.564 38.006C112.476 38.3678 112.373 38.7731 112.255 39.2217C112.138 39.6704 111.999 40.1624 111.837 40.6978L105.025 62.4683L98.1157 62.4442ZM104.288 55.9036L105.544 50.9103L119.863 50.9602L121.149 55.9624L104.288 55.9036ZM129.644 62.5542L129.754 30.917L139.598 30.9514L146.137 50.074C146.294 50.5815 146.437 51.0673 146.566 51.5313C146.695 51.9808 146.802 52.4737 146.887 53.01L146.995 53.0104C147.099 52.4748 147.216 51.9827 147.348 51.5341C147.48 51.071 147.627 50.5862 147.788 50.0797L154.46 31.0032L164.368 31.0377L164.258 62.6748L157.088 62.6498L157.155 43.4199C157.156 42.9418 157.165 42.4059 157.182 41.812C157.199 41.2036 157.229 40.6533 157.275 40.1609L157.123 40.1604C157.048 40.6671 156.938 41.2172 156.791 41.8106C156.644 42.3896 156.49 42.925 156.329 43.417L149.808 62.6245L143.464 62.6023L137.056 43.3498C136.912 42.8568 136.762 42.2913 136.605 41.6533C136.448 41.0154 136.348 40.4936 136.306 40.0878L136.154 40.0873C136.182 40.4785 136.202 41.0001 136.214 41.652C136.241 42.3039 136.253 42.8689 136.252 43.347L136.185 62.577L129.644 62.5542ZM167.591 54.0383L167.595 52.7563L174.505 52.7804L174.502 53.6278C174.497 55.1633 174.928 56.3092 175.794 57.0655C176.661 57.8073 177.876 58.1809 179.441 58.1864C180.962 58.1917 182.136 57.8554 182.964 57.1774C183.792 56.485 184.208 55.5593 184.212 54.4004C184.216 53.314 183.785 52.4433 182.918 51.7884C182.051 51.1335 180.315 50.4177 177.71 49.6408C174.426 48.6443 171.996 47.3683 170.423 45.8128C168.849 44.2429 168.067 42.1976 168.076 39.6771C168.085 36.8668 169.107 34.6468 171.141 33.0169C173.189 31.3872 175.915 30.5782 179.32 30.5901C182.709 30.6019 185.437 31.4009 187.503 32.9871C189.584 34.5588 190.619 36.7353 190.609 39.5166L190.606 40.5813L183.804 40.5576L183.807 39.884C183.811 38.6093 183.438 37.6012 182.687 36.8598C181.937 36.1184 180.844 35.7452 179.41 35.7402C177.904 35.7349 176.809 36.0426 176.126 36.6631C175.443 37.2836 175.1 38.1009 175.096 39.1149C175.093 40.0854 175.532 40.862 176.413 41.4445C177.295 42.027 179.074 42.714 181.752 43.5056C184.935 44.4438 187.307 45.7051 188.866 47.2895C190.425 48.8739 191.206 51.0423 191.211 53.7947C191.201 56.7788 190.121 59.1073 187.971 60.7802C185.821 62.4386 182.994 63.2616 179.488 63.2494C175.997 63.2373 173.139 62.4523 170.913 60.8945C168.688 59.3223 167.581 57.0369 167.591 54.0383Z" fill="white"/>
</svg>
