<svg width="80" height="80" viewBox="0 0 80 80" fill="none" xmlns="http://www.w3.org/2000/svg">
  <path d="M79.1977 39.8057C79.1216 61.6376 61.3617 79.2741 39.5298 79.1979C17.698 79.1218 0.0614581 61.3619 0.137573 39.5301C0.213687 17.6982 17.9736 0.0617031 39.8055 0.137818C61.6373 0.213932 79.2738 17.9738 79.1977 39.8057Z" fill="#FBC707" />
  <path d="M13.052 61.056L13.2174 13.6004L28.7318 13.6545L37.9887 41.5868C38.2252 42.3264 38.4399 43.0551 38.633 43.7728C38.8261 44.4688 38.9974 45.2191 39.1467 46.0236L39.277 46.024C39.4319 45.2206 39.6084 44.4716 39.8064 43.7769C40.0044 43.0606 40.2134 42.3334 40.4332 41.5953L49.8847 13.7282L65.4643 13.7825L65.2988 61.2382L54.2498 61.1997L54.3484 32.9088C54.351 32.17 54.3538 31.3552 54.3569 30.4643C54.3818 29.5518 54.4282 28.7262 54.4959 27.9877L54.3004 27.987C54.1673 28.747 53.9906 29.5721 53.7702 30.4622C53.5499 31.3306 53.3298 32.1447 53.1098 32.9045L43.8525 61.1634L33.8464 61.1285L24.7538 32.8056C24.5391 32.0661 24.3139 31.1961 24.0784 30.1958C23.8429 29.1954 23.6935 28.4235 23.6302 27.8801L23.4346 27.8794C23.4762 28.4227 23.5061 29.1942 23.5243 30.1938C23.5643 31.1935 23.583 32.0627 23.5804 32.8015L23.4818 61.0924L13.052 61.056Z" fill="black" />
</svg>